# xmcd
#
# Track frame offsets:
#	150
#	14484
#	32307
#	50237
#	68421
#	84871
#	101897
#	120827
#	139093
#	155180
#	171616
#	201876
#	216435
#	239186
#	260054
#	278514
#	295757
#	309638
#
# Disc length: 4398 seconds
#
# Revision: 1
# Processed by: cddbd v1.5.1PL0 Copyright (c) Steve Scherf et al.
# Submitted via: audiograbber 1.83.01
#
DISCID=11112c12
DTITLE=Sugarbabes - Angel With Dirty Faces
DYEAR=2002
DGENRE=
TTITLE0=freak like me
TTITLE1=blue
TTITLE2=round round
TTITLE3=stronger
TTITLE4=supernatural
TTITLE5=angel with dirty faces
TTITLE6=virgin sexy
TTITLE7=shape
TTITLE8=just don´t need this
TTITLE9=no man no cry
TTITLE10=switch
TTITLE11=more than a million miles
TTITLE12=breathe easy
TTITLE13=round round
TTITLE14=bonus 1
TTITLE15=bonus 2
TTITLE16=bonus 3
TTITLE17=bonus 4
EXTD=
EXTT0=
EXTT1=
EXTT2=
EXTT3=
EXTT4=
EXTT5=
EXTT6=
EXTT7=
EXTT8=
EXTT9=
EXTT10=
EXTT11=
EXTT12=
EXTT13=
EXTT14=
EXTT15=
EXTT16=
EXTT17=
PLAYORDER=
